<?xml version="1.0" encoding="utf-8"?>
<!-- Generator: Adobe Illustrator 19.2.0, SVG Export Plug-In . SVG Version: 6.00 Build 0)  -->
<svg version="1.1" id="futuristcgun" xmlns="http://www.w3.org/2000/svg" xmlns:xlink="http://www.w3.org/1999/xlink" x="0px"
	 y="0px" viewBox="0 0 236 161.5585" enable-background="new 0 0 236 161.5585" xml:space="preserve">
<g>
	<path fill="none" d="M91.0117,46.004c0-3.3107-2.6917-6.004-6-6.004c-3.3085,0-6,2.6933-6,6.004v27.992
		c0,3.3089,2.6915,6.004,6,6.004c3.3083,0,6-2.6951,6-6.004v-5.9783V51.9845V46.004z"/>
	<path fill="none" d="M65.0117,40c-3.3085,0-6,2.6933-6,6.004v27.992c0,3.3089,2.6915,6.004,6,6.004c3.3083,0,6-2.6951,6-6.004
		V46.004C71.0117,42.6933,68.32,40,65.0117,40z"/>
	<path fill="none" d="M219.0117,51.9845v16.0332c0,2.4168-0.4657,4.7152-1.2449,6.8648C223.74,72.5593,228,66.784,228,60
		c0-6.8035-4.286-12.5887-10.2856-14.8987C218.5112,47.2565,219.0117,49.556,219.0117,51.9845z"/>
	<path fill="none" d="M23.0117,56.2293C21.6584,53.7249,19.04,52,16,52c-4.4104,0-8,3.588-8,8s3.5896,8,8,8
		c3.04,0,5.6584-1.7247,7.0117-4.2291V56.2293z"/>
	<path fill="none" d="M207.0117,12c0-2.2051-1.7893-4-3.9885-4H115c-2.1992,0-3.9883,1.7949-3.9883,4c0,2.2053,1.7891,4,3.9883,4
		h88.0232C205.2224,16,207.0117,14.2053,207.0117,12z"/>
	<path fill="none" d="M211.0117,68.0177V51.9845c0-6.6076-5.3829-11.9845-11.996-11.9845h-88.008
		c-6.6133,0-11.996,5.3769-11.996,11.9845v16.0332c0,6.6072,5.3827,11.9823,11.996,11.9823h47.9179l28.1212,66.2461
		c2.586,6.0859,9.6289,8.9572,15.7384,6.3596l8.9216-3.7892c6.09-2.586,8.9416-9.6485,6.3556-15.7384l-22.258-52.4372l5.0784-0.7852
		C206.7536,78.9453,211.0117,73.9689,211.0117,68.0177z M154,72h-32v-8h32V72z M154,56h-32v-8h32V56z"/>
	<rect x="122" y="48" width="32" height="8"/>
	<rect x="122" y="64" width="32" height="8"/>
	<path d="M212,84c13.2344,0,24-10.7655,24-24c0-13.2343-10.7656-24-24-24c-0.3152,0-0.594,0.1105-0.8883,0.1797
		C207.7424,33.5969,203.5808,32,199.0157,32H144v-8h59.0232c6.6096,0,11.9885-5.3827,11.9885-12c0-6.6171-5.3789-12-11.9885-12H115
		c-6.6096,0-11.9883,5.3829-11.9883,12c0,6.6173,5.3787,12,11.9883,12h21v8h-24.9923c-5.6605,0-10.7525,2.3857-14.3937,6.1753
		C94.0952,34.452,89.834,32,85.0117,32c-3.9189,0-7.456,1.6289-10,4.2337c-2.544-2.6048-6.0813-4.2337-10-4.2337
		c-7.7189,0-14,6.2813-14,14.004V56h-19.58C29.6432,49.1189,23.4348,44,16,44C7.1757,44,0,51.1777,0,60c0,8.8225,7.1757,16,16,16
		c7.4348,0,13.6432-5.1187,15.4317-12h19.58v9.996c0,7.7229,6.2811,14.004,14,14.004c3.9187,0,7.456-1.6287,10-4.2335
		c2.544,2.6048,6.0811,4.2335,10,4.2335c4.8223,0,9.0831-2.452,11.6019-6.1751C100.2544,85.6145,105.3472,88,111.0077,88H128
		c6.6172,0,12,5.3829,12,12c0,6.6173-5.3828,12-12,12v8c11.0272,0,20-8.9727,20-20c0-4.5195-1.564-8.6467-4.1024-12h9.7312
		l26.0509,61.3713c3.2303,7.6132,10.6523,12.1912,18.4451,12.1872c2.6016,0,5.2424-0.5076,7.7852-1.5856l8.922-3.7932
		c10.1524-4.3084,14.9024-16.074,10.5976-26.2264l-18.4924-43.5664c1.5528-0.6608,2.9696-1.5404,4.2792-2.5448
		C211.4784,83.896,211.722,84,212,84z M111.0117,12c0-2.2051,1.7891-4,3.9883-4h88.0232c2.1992,0,3.9885,1.7949,3.9885,4
		c0,2.2053-1.7893,4-3.9885,4H115C112.8008,16,111.0117,14.2053,111.0117,12z M16,68c-4.4104,0-8-3.588-8-8s3.5896-8,8-8
		c3.04,0,5.6584,1.7249,7.0117,4.2293v7.5416C21.6584,66.2753,19.04,68,16,68z M228,60c0,6.784-4.26,12.5593-10.2332,14.8825
		c0.7792-2.1496,1.2449-4.448,1.2449-6.8648V51.9845c0-2.4285-0.5005-4.728-1.2973-6.8832C223.714,47.4113,228,53.1965,228,60z
		 M65.0117,80c-3.3085,0-6-2.6951-6-6.004V46.004c0-3.3107,2.6915-6.004,6-6.004c3.3083,0,6,2.6933,6,6.004v27.992
		C71.0117,77.3049,68.32,80,65.0117,80z M91.0117,73.996c0,3.3089-2.6917,6.004-6,6.004c-3.3085,0-6-2.6951-6-6.004V46.004
		c0-3.3107,2.6915-6.004,6-6.004c3.3083,0,6,2.6933,6,6.004v5.9805v16.0332V73.996z M218.0624,133.0781
		c2.586,6.0899-0.2656,13.1524-6.3556,15.7384l-8.9216,3.7892c-6.1095,2.5976-13.1524-0.2737-15.7384-6.3596L158.9256,80h-47.9179
		c-6.6133,0-11.996-5.3751-11.996-11.9823V51.9845c0-6.6076,5.3827-11.9845,11.996-11.9845h88.008
		c6.6131,0,11.996,5.3769,11.996,11.9845v16.0332c0,5.9512-4.2581,10.9276-10.1289,11.838l-5.0784,0.7852L218.0624,133.0781z"/>
</g>
</svg>
