<?xml version="1.0" standalone="no"?>
<svg version="1.0" xmlns="http://www.w3.org/2000/svg" viewBox="0 0 483 322"
 preserveAspectRatio="xMidYMid meet">

<g transform="translate(0, 322) scale(0.100000,-0.100000)"
fill="#000000" >
<path d="M3642 3104 c-63 -14 -106 -37 -172 -93 -53 -45 -747 -737 -961 -959
-59 -60 -116 -115 -127 -121 -17 -9 -30 -4 -84 36 -34 25 -101 83 -148 127
-162 154 -290 238 -455 296 -78 27 -108 34 -173 39 -7 1 -11 4 -8 9 10 17
-273 16 -301 -1 -6 -4 -28 -9 -49 -13 -191 -30 -414 -167 -553 -339 -136 -169
-230 -434 -231 -651 -1 -264 113 -537 302 -721 56 -54 186 -153 202 -153 5 0
17 -7 27 -16 22 -19 227 -84 245 -77 24 9 64 -6 64 -25 0 -9 -11 -48 -25 -87
-13 -38 -25 -84 -25 -101 0 -31 25 -64 50 -64 11 0 105 41 162 71 21 11 58 24
233 85 120 42 164 52 238 53 19 1 26 5 21 13 -4 7 -3 8 5 4 13 -8 175 141 435
397 171 170 148 164 258 71 220 -184 285 -235 384 -301 188 -123 345 -174 559
-178 190 -4 300 15 443 78 284 125 510 379 582 652 46 177 31 450 -36 635 -25
70 -81 177 -127 243 -18 27 -20 27 -38 11 -20 -18 -27 -6 -8 13 16 16 -20 61
-116 145 -79 70 -142 107 -180 108 -15 0 -16 3 -7 9 9 6 -7 17 -53 36 -36 16
-68 32 -71 37 -3 5 15 31 40 59 25 28 71 87 103 131 32 44 65 90 73 101 24 33
18 115 -13 178 -37 77 -159 192 -255 241 -80 41 -112 45 -210 22z m176 -105
c101 -50 212 -184 212 -258 0 -86 -30 -80 -137 27 -49 48 -117 107 -152 132
-81 57 -91 72 -67 99 25 28 86 27 144 0z m-144 -143 c104 -81 159 -141 193
-211 27 -55 27 -56 10 -88 -10 -17 -29 -45 -43 -60 l-25 -29 -44 37 c-25 20
-45 40 -45 43 0 4 -54 64 -120 132 -88 91 -123 121 -129 111 -5 -8 1 -31 17
-60 28 -50 154 -219 215 -287 43 -48 43 -65 -1 -107 l-27 -26 -165 158 c-91
87 -171 170 -179 184 -13 24 -11 27 23 58 20 17 54 44 75 59 21 16 48 45 61
65 18 29 79 81 99 84 2 1 40 -28 85 -63z m-333 -383 c159 -162 221 -231 218
-242 -2 -6 -150 -150 -328 -320 -179 -171 -422 -411 -540 -533 -119 -123 -286
-290 -372 -373 -85 -82 -215 -212 -289 -288 -141 -145 -161 -161 -225 -172
-22 -4 -71 -22 -109 -41 -38 -19 -77 -34 -87 -34 -16 0 -183 -52 -242 -75 -16
-7 -17 -4 -11 21 21 92 78 248 100 273 30 36 103 52 131 30 9 -8 18 -13 20
-11 15 11 50 -18 80 -68 36 -59 70 -94 78 -80 4 6 13 9 21 6 17 -6 18 6 3 53
-41 135 -119 209 -207 198 -26 -3 -55 -9 -66 -13 -17 -7 -17 -6 -1 27 28 53
97 130 234 256 69 65 231 226 359 358 129 132 313 321 411 420 97 99 293 300
435 448 142 147 263 267 270 267 6 0 59 -48 117 -107z m-1707 -190 c108 -36
150 -57 241 -118 61 -40 157 -115 215 -167 58 -51 126 -109 150 -129 l43 -37
-65 -83 c-36 -46 -93 -110 -125 -141 l-59 -57 -82 79 c-203 197 -351 298 -466
319 -202 37 -347 -8 -490 -152 -65 -66 -85 -94 -103 -142 -50 -138 -62 -238
-39 -343 22 -104 65 -178 156 -266 90 -88 166 -128 286 -153 44 -8 80 -17 82
-18 2 -2 -8 -25 -21 -52 -14 -26 -32 -70 -40 -98 -22 -70 -53 -154 -59 -161
-11 -10 -235 54 -295 85 -110 56 -208 137 -282 230 -52 66 -138 246 -158 329
-23 101 -23 296 0 413 66 333 281 569 622 684 67 22 75 23 219 23 139 0 140 0
270 -45z m2289 -39 c250 -110 436 -332 515 -616 27 -100 24 -358 -6 -461 -41
-144 -118 -274 -220 -371 -130 -125 -233 -189 -390 -240 -94 -32 -159 -36
-322 -25 -217 16 -388 85 -591 237 -125 93 -329 271 -329 286 0 5 33 44 73 85
41 42 96 100 124 130 l51 55 43 -42 c55 -51 270 -237 324 -278 110 -85 249
-136 366 -136 164 2 291 53 401 164 119 120 171 275 149 441 -14 105 -39 177
-86 242 -118 167 -260 248 -437 249 -49 1 -88 4 -88 7 0 4 24 27 53 51 28 25
79 74 112 109 99 105 147 149 162 149 8 0 51 -16 96 -36z m-180 -426 c153 -79
240 -202 253 -353 16 -201 -66 -356 -231 -435 -135 -65 -295 -51 -444 37 -104
62 -409 330 -399 351 10 23 400 390 428 404 50 24 122 35 225 36 86 0 94 -2
168 -40z m-2229 2 c91 -34 171 -91 305 -215 71 -66 130 -124 130 -130 1 -11
-335 -343 -441 -435 -64 -56 -68 -58 -105 -50 -21 5 -65 14 -98 20 -141 27
-256 116 -318 247 -29 62 -32 76 -32 168 0 90 3 106 29 159 60 122 192 231
309 256 58 12 158 3 221 -20z"/>


</g>
</svg>
