<?xml version="1.0" standalone="no"?>
<!DOCTYPE svg PUBLIC "-//W3C//DTD SVG 20010904//EN"
 "http://www.w3.org/TR/2001/REC-SVG-20010904/DTD/svg10.dtd">
<svg version="1.0" xmlns="http://www.w3.org/2000/svg"
 width="512.000000pt" height="512.000000pt" viewBox="0 0 512.000000 512.000000"
 preserveAspectRatio="xMidYMid meet">

<g transform="translate(0.000000,512.000000) scale(0.100000,-0.100000)"
fill="#000000" stroke="none">
<path d="M3855 4140 c-83 -24 -114 -41 -182 -102 -32 -28 -302 -296 -601 -595
-328 -328 -550 -543 -561 -543 -25 0 -125 75 -246 184 -133 120 -199 171 -276
213 -35 19 -75 41 -89 49 -34 18 -166 61 -215 69 -22 4 -59 13 -83 21 -47 15
-206 18 -287 4 -234 -39 -428 -135 -588 -293 -95 -94 -127 -138 -191 -264 -64
-126 -82 -180 -121 -373 -26 -128 -18 -228 35 -445 16 -64 81 -202 135 -286
76 -117 238 -270 356 -337 44 -24 203 -79 254 -87 75 -12 84 -15 90 -33 3 -11
-4 -49 -15 -86 -12 -39 -20 -86 -18 -114 4 -67 32 -75 119 -35 58 27 149 64
239 99 86 33 280 88 325 92 68 7 108 39 388 312 125 122 239 232 253 243 34
26 68 25 103 -4 16 -13 65 -53 108 -89 76 -63 153 -125 223 -180 121 -96 317
-205 420 -233 165 -46 355 -57 518 -32 126 20 176 36 295 96 184 92 327 218
443 391 50 74 76 128 115 238 33 95 33 96 33 290 0 157 -3 210 -18 270 -21 85
-92 277 -111 300 -7 8 -25 39 -41 67 -21 38 -35 53 -50 53 -16 0 -23 8 -27 29
-10 47 -169 192 -269 243 -77 39 -142 76 -161 90 -17 13 -11 23 87 148 132
169 140 186 132 262 -8 84 -37 132 -134 226 -65 63 -104 92 -167 122 -92 45
-125 48 -220 20z m199 -115 c100 -47 215 -192 216 -270 0 -81 -37 -71 -155 41
-49 47 -118 106 -152 132 -65 49 -84 81 -63 107 19 23 94 19 154 -10z m-198
-116 c70 -48 166 -136 203 -188 70 -97 74 -138 18 -205 -33 -38 -33 -38 -63
-23 -16 8 -52 41 -80 74 -28 32 -92 100 -143 151 -82 83 -111 102 -111 71 0
-14 78 -136 120 -189 20 -25 62 -77 93 -116 39 -49 57 -80 57 -99 0 -29 -34
-75 -54 -75 -19 0 -366 350 -366 369 0 23 13 38 85 97 33 27 66 58 74 69 27
37 92 95 107 95 9 0 36 -14 60 -31z m-257 -496 c107 -110 161 -174 161 -188 0
-15 -70 -90 -232 -246 -128 -123 -519 -509 -868 -858 -349 -349 -648 -644
-665 -656 -16 -12 -59 -30 -95 -40 -36 -10 -86 -29 -111 -41 -42 -21 -257 -88
-321 -101 -37 -7 -37 2 12 148 47 141 61 163 117 185 39 15 44 15 95 -4 46
-17 59 -28 103 -91 51 -73 80 -94 97 -70 23 35 -16 140 -78 209 -44 49 -89 64
-160 55 -63 -8 -67 0 -27 54 15 20 187 196 382 391 196 196 419 421 496 500
581 599 900 920 915 920 10 0 88 -72 179 -167z m-1934 -117 c131 -43 155 -52
225 -89 106 -57 241 -158 390 -292 25 -22 62 -53 82 -69 20 -16 40 -35 43 -44
5 -14 -10 -45 -37 -73 -7 -8 -29 -34 -48 -59 -50 -65 -146 -160 -161 -160 -8
0 -37 22 -64 48 -172 162 -309 270 -405 318 -176 88 -402 69 -555 -49 -103
-79 -205 -216 -205 -277 0 -10 -4 -21 -9 -24 -4 -3 -14 -46 -21 -95 -29 -205
51 -380 242 -528 64 -49 107 -69 188 -90 30 -8 70 -18 88 -23 19 -4 36 -10 38
-13 3 -3 -9 -34 -26 -70 -17 -35 -42 -102 -55 -148 -33 -109 -40 -116 -102
-99 -152 40 -263 84 -333 130 -137 90 -223 185 -297 330 -87 169 -103 236
-103 428 0 250 55 433 182 604 128 174 367 327 558 359 78 13 329 3 385 -15z
m2520 -79 c167 -81 294 -195 387 -346 68 -111 84 -145 119 -254 27 -87 29
-101 29 -265 0 -184 -5 -214 -57 -357 -94 -257 -401 -514 -684 -571 -128 -26
-409 -6 -515 37 -16 6 -38 15 -49 19 -86 33 -228 113 -320 182 -209 155 -359
290 -350 317 2 9 60 75 128 146 l123 129 125 -109 c171 -150 217 -188 269
-226 25 -18 47 -36 50 -40 7 -10 108 -55 165 -74 149 -50 306 -36 459 41 136
68 253 221 285 372 21 100 10 255 -24 344 -26 66 -101 172 -163 230 -81 74
-214 137 -292 138 -62 0 -140 13 -140 22 0 8 289 295 313 310 20 13 28 10 142
-45z m-222 -438 c176 -87 277 -241 277 -422 0 -143 -61 -275 -165 -358 -61
-48 -96 -63 -200 -86 -92 -20 -190 -5 -305 45 -109 48 -460 350 -460 395 0 24
73 98 366 368 59 55 91 72 164 87 139 30 220 23 323 -29z m-2358 0 c96 -30
196 -103 368 -268 48 -46 87 -89 87 -96 0 -17 -440 -447 -498 -487 -49 -34
-29 -34 -202 3 -133 29 -248 124 -310 255 -38 79 -40 88 -40 179 0 87 3 101
32 163 43 89 153 202 234 239 98 45 211 50 329 12z"/>
</g>
</svg>
